<?xml version="1.0" standalone="no"?><!DOCTYPE svg PUBLIC "-//W3C//DTD SVG 1.1//EN" "http://www.w3.org/Graphics/SVG/1.1/DTD/svg11.dtd"><svg t="1532498938799" class="icon" style="" viewBox="0 0 1202 1024" version="1.1" xmlns="http://www.w3.org/2000/svg" p-id="1967" xmlns:xlink="http://www.w3.org/1999/xlink" width="18.78125" height="16"><defs><style type="text/css"></style></defs><path d="M321.865166 1004.242529l144.058417-807.009607a58.117685 58.117685 0 0 1 66.450477-48.019473l342.774294 60.518659a58.258919 58.258919 0 0 1 46.0422 67.933431l-127.745921 725.729588" fill="#FBDEB5" p-id="1968"></path><path d="M542.96659 327.944751l11.793018-67.086028a41.099019 41.099019 0 0 1 47.383921-33.260546 41.099019 41.099019 0 0 1 33.189929 47.807622l-11.793017 67.156645M751.639445 364.806758l11.863635-67.086028a41.028402 41.028402 0 0 1 47.313304-33.260546 41.169636 41.169636 0 0 1 33.189929 47.525154l-11.793017 67.086028M505.115947 543.184975l11.793018-67.086028a41.028402 41.028402 0 0 1 47.38392-33.260546 41.099019 41.099019 0 0 1 33.119313 47.525155l-11.793017 67.086027M714.07127 580.117599l11.793017-67.156645a40.957785 40.957785 0 0 1 47.383921-33.189929 41.099019 41.099019 0 0 1 33.18993 47.454537l-11.863635 67.086028M466.91222 758.495817l11.793017-67.156645a41.028402 41.028402 0 0 1 47.383921-33.18993 41.028402 41.028402 0 0 1 33.18993 47.454538l-11.793018 67.086028M675.867542 795.357823l11.863635-67.156644a40.957785 40.957785 0 0 1 47.313304-33.18993 41.099019 41.099019 0 0 1 33.189929 47.454538l-11.793017 67.086028" fill="#FFFFFF" p-id="1969"></path><path d="M506.104583 1013.846424l20.337659-114.116865c5.084415-29.023534 35.873371-48.160706 68.427749-42.370122 32.483761 5.719967 54.939926 34.178566 49.43181 63.555184L629.331024 1008.620775" fill="#F3A8BC" p-id="1970"></path><path d="M570.295319 117.224007l12.216719-69.345768a38.062494 38.062494 0 0 1 43.994311-30.859573l228.163112 40.322234a38.062494 38.062494 0 0 1 30.788956 44.064927l-12.216719 69.345768" fill="#88CAEF" p-id="1971"></path><path d="M625.870797 130.146894l5.931818-36.862007A27.469963 27.469963 0 0 1 663.227122 70.616871a27.611197 27.611197 0 0 1 22.597399 31.495125l-5.931817 36.79139M750.792043 152.179358l5.8612-36.79139a27.54058 27.54058 0 0 1 31.495125-22.809249 27.681814 27.681814 0 0 1 22.738633 31.565741l-5.931818 36.79139M530.467404 119.060045a76.478072 76.478072 0 0 0-70.616871 60.801127L383.301844 609.070516a162.418804 162.418804 0 0 0 36.79139-42.370122c11.863634-25.633924 0.635552-50.985381 3.036525-58.329536 5.084415-15.253244 24.504054-12.499186 32.554378-25.845775 41.593337-68.427748-10.804381-108.326281 28.246749-140.880659 14.123374-11.722401 29.023534-23.444801 37.073857-40.39285A234.871715 234.871715 0 0 0 537.529091 242.357103c5.084415-26.834411 16.948049-60.165574 43.711844-72.664761a259.58762 259.58762 0 0 1 26.693177-8.191557 30.224021 30.224021 0 0 0 21.185061-18.925321 62.142847 62.142847 0 0 0-20.97321-5.508116l-33.119313-7.697239z" fill="#FFFFFF" p-id="1972"></path><path d="M1191.865022 1022.885383H10.868464a10.027596 10.027596 0 1 1 0-19.984574h1180.996558a10.027596 10.027596 0 1 1 0 19.984574zM873.312315 174.353056h-1.765422a10.027596 10.027596 0 0 1-8.12094-11.934252l12.216719-69.275151a28.246749 28.246749 0 0 0-22.738633-32.554377L624.811544 20.478893a28.246749 28.246749 0 0 0-32.483761 22.738632L579.899214 112.563293a10.027596 10.027596 0 0 1-19.772724-3.530843L572.837527 39.757299a47.948856 47.948856 0 0 1 19.772724-31.000807A47.313304 47.313304 0 0 1 628.271771 0.776786l228.092495 40.251616a48.160706 48.160706 0 0 1 38.980513 55.716712l-12.216719 69.345768a10.027596 10.027596 0 0 1-9.815745 8.262174z" fill="#952D2E" p-id="1973"></path><path d="M819.996577 1023.097234a7.061687 7.061687 0 0 1-1.694805 0 9.956979 9.956979 0 0 1-8.12094-11.581167L943.85857 252.8084a51.69155 51.69155 0 0 0-41.734571-59.741873l-368.761303-65.108756A50.702914 50.702914 0 0 0 495.158968 136.573029 51.479699 51.479699 0 0 0 473.973907 169.480492l-9.03896 51.620933a10.027596 10.027596 0 1 1-19.702107-3.530844l9.03896-51.550316a71.676125 71.676125 0 0 1 82.551122-57.764601l368.761303 65.108755a71.605508 71.605508 0 0 1 57.976452 82.904208L830.024173 1014.764443a10.027596 10.027596 0 0 1-10.027596 8.332791z" fill="#952D2E" p-id="1974"></path><path d="M446.080243 279.360344h-1.694805a9.956979 9.956979 0 0 1-8.120941-11.581167l2.965909-17.089283a10.027596 10.027596 0 1 1 19.702107 3.530843l-2.965908 17.018666a10.027596 10.027596 0 0 1-9.886362 8.120941zM370.943891 706.168715h-1.765421A10.027596 10.027596 0 0 1 360.986912 694.728782l65.603074-373.422017a10.027596 10.027596 0 0 1 19.772724 3.460227L380.759636 698.189008a9.956979 9.956979 0 0 1-9.815745 7.979707zM387.327005 1020.69626h-1.836038a10.027596 10.027596 0 0 1-8.050324-11.651784l19.772725-107.690729a10.027596 10.027596 0 0 1 19.702107 3.601461l-19.772724 107.690729a10.027596 10.027596 0 0 1-9.815746 8.050323zM440.854594 1022.249831a8.050323 8.050323 0 0 1-1.836039 0 9.956979 9.956979 0 0 1-8.050323-11.581166l12.922888-72.170443a10.098213 10.098213 0 0 1 11.651783-8.12094 10.027596 10.027596 0 0 1 8.050324 11.651783l-12.922888 72.029209a9.956979 9.956979 0 0 1-9.815745 8.191557zM748.532303 1022.249831a8.332791 8.332791 0 0 1-1.836039 0 9.886362 9.886362 0 0 1-7.979706-11.651783l8.756492-47.383921a10.027596 10.027596 0 0 1 19.702107 3.672077l-8.827109 47.313304a9.886362 9.886362 0 0 1-9.815745 8.050323zM695.852117 1019.919475h-1.906656a10.027596 10.027596 0 0 1-8.12094-11.863635l5.013798-26.198859a10.027596 10.027596 0 1 1 19.63149 3.742694l-4.943181 26.128243a10.098213 10.098213 0 0 1-9.674511 8.191557zM313.320524 1021.473046h-1.836038a10.098213 10.098213 0 0 1-8.050324-11.651784l49.43181-266.013755a9.956979 9.956979 0 1 1 19.63149 3.672078l-49.43181 266.013754a9.956979 9.956979 0 0 1-9.745128 7.979707zM629.331024 1018.648371h-1.694805a10.098213 10.098213 0 0 1-8.191557-11.651784l15.535712-87.918005c4.166395-23.727269-14.547076-46.96022-41.734571-51.762167a55.222393 55.222393 0 0 0-21.538146 0.423702 10.027596 10.027596 0 0 1-4.307629-19.560874 74.430183 74.430183 0 0 1 29.306001-0.564935c38.062494 6.708603 64.049502 40.322234 57.976452 74.924501L639.217386 1010.527431a10.027596 10.027596 0 0 1-9.886362 8.12094zM506.1752 1023.944636a7.061687 7.061687 0 0 1-1.765422 0 9.956979 9.956979 0 0 1-8.12094-11.581167L516.34403 898.034755a57.693984 57.693984 0 0 1 4.025161-13.275972 59.953724 59.953724 0 0 1 8.968343-14.123375 10.027596 10.027596 0 1 1 15.253244 12.569804 38.415578 38.415578 0 0 0-8.615258 18.289769L516.34403 1015.611846a10.027596 10.027596 0 0 1-10.16883 8.33279z" fill="#952D2E" p-id="1975"></path><path d="M550.87568 333.1704l9.180193-52.397719a32.06006 32.06006 0 0 1 37.003241-25.916392 32.06006 32.06006 0 0 1 25.916392 37.003241l-9.250811 52.397718M759.972236 368.408218l9.25081-52.397718a31.989443 31.989443 0 0 1 36.650157-25.916392 32.06006 32.06006 0 0 1 25.916392 37.003241l-9.250811 52.397718M513.660589 545.162248l9.25081-52.397719a32.06006 32.06006 0 0 1 37.00324-25.916392 32.06006 32.06006 0 0 1 25.845775 37.073858l-9.180193 52.327102M722.404061 582.024255l9.180193-52.397719a32.06006 32.06006 0 0 1 37.003241-25.916392 31.989443 31.989443 0 0 1 25.845775 37.073858l-9.180194 52.397718M475.456861 758.848901l9.180193-52.397719a32.06006 32.06006 0 0 1 37.003241-25.916392 32.06006 32.06006 0 0 1 25.845775 37.073858l-9.180193 52.115251M685.330203 793.804252l9.180193-52.397718a32.06006 32.06006 0 0 1 37.003241-25.916392 32.06006 32.06006 0 0 1 25.845775 37.073857l-9.180193 52.327102" fill="#F5E455" p-id="1976"></path><path d="M623.540441 352.236955a7.556005 7.556005 0 0 1-1.765422 0 9.956979 9.956979 0 0 1-8.12094-11.581167l11.793017-67.086028a30.859573 30.859573 0 0 0-48.090089-30.718339 30.647722 30.647722 0 0 0-12.711037 19.984575l-11.793018 67.086028a10.027596 10.027596 0 0 1-11.581167 8.12094 9.956979 9.956979 0 0 1-8.12094-11.581167l11.793018-67.156645a50.914764 50.914764 0 1 1 100.20534 17.512984l-11.793017 67.086028a10.027596 10.027596 0 0 1-9.815745 8.332791zM832.213296 389.098962a7.556005 7.556005 0 0 1-1.765422 0 10.027596 10.027596 0 0 1-8.12094-11.581167l11.793017-67.086028a30.859573 30.859573 0 1 0-60.801126-10.733764l-11.793018 67.086027a10.027596 10.027596 0 1 1-19.702107-3.460226l11.793018-67.156645a50.914764 50.914764 0 1 1 100.275957 17.724835l-11.863634 67.086028a10.027596 10.027596 0 0 1-9.815745 8.12094zM585.619181 567.477179a7.061687 7.061687 0 0 1-1.694805 0 9.886362 9.886362 0 0 1-8.120941-11.581167l11.793018-67.086028a30.859573 30.859573 0 1 0-60.801126-10.733764l-11.863635 67.086028a10.027596 10.027596 0 0 1-19.772724-3.672078l11.793018-67.156644a50.914764 50.914764 0 1 1 100.275957 17.724834l-11.793017 67.156645a10.027596 10.027596 0 0 1-9.815745 8.262174zM794.292036 604.339186h-1.694805a10.027596 10.027596 0 0 1-7.90909-11.793017l11.793018-67.086028a30.859573 30.859573 0 1 0-61.224828-10.733765l-11.863634 67.086028a10.027596 10.027596 0 1 1-19.702107-3.460227l11.793017-67.086028a50.914764 50.914764 0 1 1 100.275958 17.654218l-11.793018 67.156645a10.027596 10.027596 0 0 1-9.674511 8.262174zM547.768537 782.717403h-1.765421a10.098213 10.098213 0 0 1-8.120941-11.651783l11.793018-67.086028a30.859573 30.859573 0 1 0-60.801126-10.733765l-11.793018 67.086028a10.027596 10.027596 0 1 1-19.702107-3.460227l11.793018-67.086027a50.914764 50.914764 0 1 1 100.275957 17.654217l-11.863634 67.156645a10.027596 10.027596 0 0 1-9.815746 8.12094zM756.441393 819.57941h-1.765422a10.027596 10.027596 0 0 1-8.12094-11.581167l11.793017-67.156644a30.788956 30.788956 0 0 0-48.019472-30.718339 30.647722 30.647722 0 0 0-12.781654 19.984574L685.824521 797.052628a10.027596 10.027596 0 1 1-19.702107-3.460226l11.793018-67.086028a50.914764 50.914764 0 1 1 100.275957 17.654218l-11.863634 67.156644a9.956979 9.956979 0 0 1-9.886362 8.262174z" fill="#952D2E" p-id="1977"></path><path d="M985.734374 426.596521h-1.765421L370.237723 317.775922a10.027596 10.027596 0 0 1 3.460226-19.702108l613.801847 108.679366a10.027596 10.027596 0 0 1-1.765422 19.843341zM911.374809 849.026646a7.061687 7.061687 0 0 1-1.694805 0l-613.801847-108.538132a10.027596 10.027596 0 0 1 3.460227-19.702107l613.801846 108.396898a10.027596 10.027596 0 0 1-1.765421 19.843341zM948.5899 637.811583h-1.765422L332.740164 529.202835a10.027596 10.027596 0 1 1 3.530843-19.702107l613.73123 108.467514a10.027596 10.027596 0 0 1-1.694805 19.843341z" fill="#952D2E" p-id="1978"></path></svg>