<?xml version="1.0" standalone="no"?><!DOCTYPE svg PUBLIC "-//W3C//DTD SVG 1.1//EN" "http://www.w3.org/Graphics/SVG/1.1/DTD/svg11.dtd"><svg t="1532499280279" class="icon" style="" viewBox="0 0 1449 1024" version="1.1" xmlns="http://www.w3.org/2000/svg" p-id="1153" xmlns:xlink="http://www.w3.org/1999/xlink" width="22.640625" height="16"><defs><style type="text/css"></style></defs><path d="M1173.695865 849.420067H100.019694l510.853132-816.548463a40.402137 40.402137 0 0 1 69.916962 0L828.448968 247.130519" fill="#F5E455" p-id="1154"></path><path d="M904.404987 348.773791L680.789788 32.70149l-45.335451-15.480398 180.151004 821.566834 88.799646-490.014135z" fill="#FBDEB5" p-id="1155"></path><path d="M1117.21793 330.911793l134.900611 221.148542-93.818017 63.282506H839.591452l-90.755959-63.282506 129.371897-221.148542" fill="#C9E4F7" p-id="1156"></path><path d="M878.037276 300.46134m30.450453 0l178.109634 0q30.450453 0 30.450453 30.450453l0 207.28423q0 30.450453-30.450453 30.450453l-178.109634 0q-30.450453 0-30.450453-30.450453l0-207.28423q0-30.450453 30.450453-30.450453Z" fill="#FFFFFF" p-id="1157"></path><path d="M1271.851795 836.151155V729.23434a114.061613 114.061613 0 0 0-113.551271-113.891499H839.591452a114.146671 114.146671 0 0 0-113.636327 113.891499v106.916815" fill="#C1E1C4" p-id="1158"></path><path d="M1258.07254 836.151155c0-52.395193-40.061909-104.535215-88.96976-104.535215h-68.556048c-48.992908 0-88.96976 52.140022-88.96976 104.535215M989.547175 836.151155c0-52.395193-39.976852-104.535215-88.969759-104.535215H832.021368C783.538803 731.956169 743.051608 783.755962 743.051608 836.151155" fill="#FBDEB5" p-id="1159"></path><path d="M909.763586 334.484193m37.510195 0l125.033983 0q37.510195 0 37.510195 37.510195l0 163.479807q0 37.510195-37.510195 37.510195l-125.033983 0q-37.510195 0-37.510195-37.510195l0-163.479807q0-37.510195 37.510195-37.510195Z" fill="#C1E1C4" p-id="1160"></path><path d="M635.454337 17.476264S621.930253 15.51995 565.112089 113.675879L236.026047 630.738182c6.549399 0 55.117021-20.838997 70.257191-34.873424 29.089539-26.878054 28.153911-65.919277 35.213652-74.169819 14.799941-17.011426 38.445823-3.147114 56.05265-16.075797C488.305499 438.849293 427.659764 315.176224 496.130755 293.996998a224.380713 224.380713 0 0 0 90.585845-49.928536c29.94011-28.834368 27.473453-49.503251 34.958481-86.503103 3.487342-17.011426 25.517139-151.23158 58.689421-119.079984z" fill="#FFFFFF" p-id="1161"></path><path d="M765.421634 638.393324a12.078113 12.078113 0 0 1-11.822942-9.78157l-119.079984-607.222862a12.078113 12.078113 0 1 1 23.645883-4.593086l119.079984 607.222863A11.993056 11.993056 0 0 1 767.718176 638.393324a10.547084 10.547084 0 0 1-2.296542 0zM1435.586773 861.413123H13.091305a12.078113 12.078113 0 1 1 0-24.071168h1422.495468a12.078113 12.078113 0 1 1 0 24.071168z" fill="#952D2E" p-id="1162"></path><path d="M699.757528 315.176224H534.321407a12.078113 12.078113 0 1 1 0-24.071168h165.436121a12.078113 12.078113 0 1 1 0 24.071168z" fill="#952D2E" p-id="1163"></path><path d="M588.672914 374.205873a12.16317 12.16317 0 0 1-12.078112-12.078112v-53.415879a12.078113 12.078113 0 0 1 24.156225 0v53.415879a12.16317 12.16317 0 0 1-12.078113 12.078112zM997.627603 376.587473a12.078113 12.078113 0 0 1-12.078113-12.078113v-53.500935a12.078113 12.078113 0 0 1 24.071168 0v53.500935a12.078113 12.078113 0 0 1-11.993055 12.078113zM465.765359 536.835109a11.993056 11.993056 0 0 1-11.993055-12.078113v-53.415878a12.078113 12.078113 0 1 1 24.071168 0v53.415878a11.993056 11.993056 0 0 1-12.078113 12.078113zM379.602485 625.209469A11.993056 11.993056 0 0 1 367.609429 612.876184v-53.160707a12.078113 12.078113 0 1 1 24.071169 0V612.876184a11.993056 11.993056 0 0 1-12.078113 12.333285zM564.686803 793.282361a12.078113 12.078113 0 0 1-11.993055-12.078113V727.703312a12.078113 12.078113 0 0 1 24.071168 0v53.500936a12.078113 12.078113 0 0 1-12.078113 12.078113zM686.65873 625.209469A11.993056 11.993056 0 0 1 674.665674 612.876184v-53.160707a12.078113 12.078113 0 1 1 24.071169 0V612.876184a11.993056 11.993056 0 0 1-12.078113 12.333285z" fill="#952D2E" p-id="1164"></path><path d="M625.927938 472.872146H349.747432a12.078113 12.078113 0 1 1 0-24.071168h276.435677a12.078113 12.078113 0 0 1 0 24.071168zM515.438724 631.163468H249.124845a12.078113 12.078113 0 1 1 0-24.156226h266.313879a12.078113 12.078113 0 1 1 0 24.156226zM763.805548 631.163468h-129.28684a12.078113 12.078113 0 0 1 0-24.156226h129.28684a12.078113 12.078113 0 0 1 0 24.156226zM725.955125 734.252711H435.740192a12.078113 12.078113 0 1 1 0-24.071168h290.214933a12.078113 12.078113 0 1 1 0 24.071168zM1086.342191 580.724589h-175.898148a42.528566 42.528566 0 0 1-42.528566-42.528566V330.741679a42.528566 42.528566 0 0 1 42.528566-42.528566h175.898148a42.528566 42.528566 0 0 1 42.528566 42.528566v207.624458a42.528566 42.528566 0 0 1-42.528566 42.358452z m-175.898148-268.270193a18.37234 18.37234 0 0 0-18.287283 18.287283v207.624458a18.287283 18.287283 0 0 0 18.287283 18.202226h175.898148a18.202226 18.202226 0 0 0 18.202226-18.202226V330.741679a18.287283 18.287283 0 0 0-18.202226-18.287283z" fill="#952D2E" p-id="1165"></path><path d="M1271.851795 848.229268a12.16317 12.16317 0 0 1-11.993055-12.078113V729.23434a102.068558 102.068558 0 0 0-101.473158-102.068557H839.591452a102.068558 102.068558 0 0 0-101.558215 102.068557v106.916815a12.078113 12.078113 0 1 1-24.071168 0V729.23434a125.969612 125.969612 0 0 1 125.629383-125.969611h318.709072a125.969612 125.969612 0 0 1 125.629384 125.969611v106.916815a12.16317 12.16317 0 0 1-12.078113 12.078113z" fill="#952D2E" p-id="1166"></path><path d="M1258.07254 848.229268a12.078113 12.078113 0 0 1-12.078113-12.078113c0-48.397508-36.659624-92.457102-76.551418-92.457102h-68.556048c-40.31708 0-76.976704 44.059594-76.976704 92.457102a12.078113 12.078113 0 1 1-24.071169 0c0-62.091706 47.206708-116.613327 101.047873-116.613328h68.556048c53.841164 0 101.047872 54.521621 101.047872 116.613328a12.16317 12.16317 0 0 1-12.418341 12.078113z" fill="#952D2E" p-id="1167"></path><path d="M989.547175 848.229268a12.078113 12.078113 0 0 1-11.993055-12.078113c0-48.397508-36.659624-92.457102-76.551419-92.457102H832.021368c-40.232023 0-76.551418 44.059594-76.551419 92.457102a12.078113 12.078113 0 1 1-24.071168 0c0-62.091706 47.206708-116.613327 100.962815-116.613328h68.556048c53.841164 0 101.047872 54.521621 101.047873 116.613328a12.078113 12.078113 0 0 1-12.418342 12.078113zM1184.583178 852.056838a12.16317 12.16317 0 0 1-12.078113-12.078112v-24.92174a12.078113 12.078113 0 1 1 24.156226 0v24.92174a12.16317 12.16317 0 0 1-12.078113 12.078112zM1081.238763 851.036153a12.16317 12.16317 0 0 1-12.078112-12.078113v-25.091854a12.078113 12.078113 0 1 1 24.156225 0v24.92174A12.16317 12.16317 0 0 1 1081.238763 851.036153z" fill="#952D2E" p-id="1168"></path><path d="M919.630213 852.056838a12.16317 12.16317 0 0 1-12.078112-12.078112v-24.92174a12.078113 12.078113 0 0 1 24.156225 0v24.92174a12.16317 12.16317 0 0 1-12.078113 12.078112zM815.605341 851.036153a12.16317 12.16317 0 0 1-12.078112-12.078113v-25.091854a12.078113 12.078113 0 1 1 24.156225 0v24.92174a12.16317 12.16317 0 0 1-12.078113 12.248227zM278.979898 118.524136a12.078113 12.078113 0 0 1-11.993055-12.078113V84.501283a12.078113 12.078113 0 1 1 24.071168 0v21.94474a12.078113 12.078113 0 0 1-12.078113 12.078113zM278.979898 235.988035a11.993056 11.993056 0 0 1-11.993055-11.993056v-22.029797a12.078113 12.078113 0 1 1 24.071168 0v22.029797a11.993056 11.993056 0 0 1-12.078113 11.993056zM348.641689 166.241187h-21.94474a12.078113 12.078113 0 1 1 0-24.071169h21.94474a12.078113 12.078113 0 1 1 0 24.071169zM231.347905 166.241187h-22.029797a12.078113 12.078113 0 0 1 0-24.071169h22.029797a12.078113 12.078113 0 0 1 0 24.071169zM306.19818 139.022905a12.078113 12.078113 0 0 1-8.505713-20.583826l22.029797-22.029797a12.078113 12.078113 0 1 1 17.011427 17.011426l-22.029797 22.029797a12.078113 12.078113 0 0 1-8.505714 3.5724zM229.731819 215.574323a12.078113 12.078113 0 0 1-8.505713-20.583826l22.029797-22.029797a12.078113 12.078113 0 0 1 17.011426 17.011426l-22.029797 22.114855a12.503398 12.503398 0 0 1-8.505713 3.487342zM328.227978 215.574323a12.248227 12.248227 0 0 1-8.505714-3.487342l-22.029797-22.114855a12.078113 12.078113 0 0 1 17.011427-17.011426l22.029797 22.029797a12.16317 12.16317 0 0 1 0 17.011426 12.333284 12.333284 0 0 1-8.505713 3.5724zM251.761616 139.022905a11.993056 11.993056 0 0 1-8.505713-3.5724l-22.029797-22.029797a12.078113 12.078113 0 1 1 17.011426-17.011426l22.029797 22.029797a12.078113 12.078113 0 0 1 0 17.011426 11.993056 11.993056 0 0 1-8.505713 3.5724zM1157.790182 627.420954H838.740881a11.652827 11.652827 0 0 1-6.889628-2.211485L741.010237 561.841906a12.078113 12.078113 0 0 1-3.487342-15.990741l129.371897-221.148542a11.993056 11.993056 0 1 1 20.75394 12.16317L764.06072 548.487936l78.422675 54.776793h311.224044l81.229561-54.776793-128.861554-211.281915a12.078113 12.078113 0 0 1 20.583825-12.588455l134.900611 221.148542a12.078113 12.078113 0 0 1-3.572399 16.245912l-93.562845 63.282506a12.16317 12.16317 0 0 1-6.634456 2.126428z" fill="#952D2E" p-id="1169"></path><path d="M1173.695865 861.413123H100.019694a12.078113 12.078113 0 0 1-10.206856-18.457398L600.66597 25.981977a52.395193 52.395193 0 0 1 90.500788 0l147.233895 214.6842a12.078113 12.078113 0 1 1-19.903369 13.609141L670.923161 39.506061a29.004482 29.004482 0 0 0-25.51714-14.970056 28.579196 28.579196 0 0 0-24.666568 14.374656L121.794319 837.341955h1051.901546a12.078113 12.078113 0 1 1 0 24.071168zM1358.354898 947.49094h-395.515662a12.078113 12.078113 0 0 1 0-24.156225h395.515662a12.078113 12.078113 0 0 1 0 24.156225zM408.436853 947.49094H209.23305a12.078113 12.078113 0 1 1 0-24.156225H408.436853a12.078113 12.078113 0 0 1 0 24.156225zM580.762601 947.49094H475.887158a12.078113 12.078113 0 0 1 0-24.156225h104.875443a12.078113 12.078113 0 1 1 0 24.156225zM459.386074 1023.957301H354.510631a12.078113 12.078113 0 1 1 0-24.071168h104.875443a12.078113 12.078113 0 1 1 0 24.071168zM945.147353 1023.957301h-77.912333a12.078113 12.078113 0 1 1 0-24.071168H945.147353a12.078113 12.078113 0 0 1 0 24.071168zM1113.390359 1023.957301h-68.896277a12.078113 12.078113 0 1 1 0-24.071168h68.896277a12.078113 12.078113 0 1 1 0 24.071168z" fill="#952D2E" p-id="1170"></path></svg>