<?xml version="1.0" standalone="no"?><!DOCTYPE svg PUBLIC "-//W3C//DTD SVG 1.1//EN" "http://www.w3.org/Graphics/SVG/1.1/DTD/svg11.dtd"><svg t="1532499135459" class="icon" style="" viewBox="0 0 1034 1024" version="1.1" xmlns="http://www.w3.org/2000/svg" p-id="2106" xmlns:xlink="http://www.w3.org/1999/xlink" width="16.15625" height="16"><defs><style type="text/css"></style></defs><path d="M406.510581 497.678944L311.881533 343.284182 328.58435 267.362288l108.294989 95.054211-30.368758 135.262445z" fill="#E9D1E5" p-id="2107"></path><path d="M590.970414 243.067282c0-33.587846-60.737515-60.737515-60.737515-60.737514H529.139624s-60.737515 27.453357-60.737515 60.737514v44.824286a61.34489 61.34489 0 0 0 122.507567 0z" fill="#FBDEB5" p-id="2108"></path><path d="M269.061585 325.305877l35.895872-145.466347a26.056394 26.056394 0 0 0-25.266807-32.251621h-43.184373a25.995656 25.995656 0 0 0-25.266806 32.251621l35.835134 145.770035a11.297178 11.297178 0 0 0 21.98698-0.303688z" fill="#F4D5E6" p-id="2109"></path><path d="M712.749131 799.36218H346.258967l95.175685-417.145251h174.134455l97.180024 417.145251z" fill="#E9D1E5" p-id="2110"></path><path d="M749.19164 1012.368644H321.963961l23.080255-189.743996h379.670205l24.477219 189.743996z" fill="#C1E1C4" p-id="2111"></path><path d="M292.141841 840.785165m19.739692 0l428.199479 0q19.739692 0 19.739693 19.739693l0 0q0 19.739692-19.739693 19.739692l-428.199479 0q-19.739692 0-19.739692-19.739692l0 0q0-19.739692 19.739692-19.739693Z" fill="#F3A8BC" p-id="2112"></path><path d="M552.39726 493.802645m16.868271-12.431818l99.302777-73.185573q16.868271-12.431818 29.300089 4.436453l40.502503 54.956338q12.431818 16.868271-4.436452 29.300089l-99.302778 73.185572q-16.868271 12.431818-29.300089-4.436453l-40.502503-54.956337q-12.431818-16.868271 4.436453-29.300089Z" fill="#F3A8BC" p-id="2113"></path><path d="M610.710106 495.249444l95.357898-70.212567" fill="#F3A8BC" p-id="2114"></path><path d="M381.425988 799.787343c-26.967457-0.4859 19.253792-64.624716 24.963118-73.249443 12.147503-18.221254 21.74403-25.813444 21.379605-50.047712a131.98262 131.98262 0 0 0-16.702816-58.004327c-19.436005-37.110622 56.607364-62.863328 46.828624-127.548781-1.639913-12.937091-17.492404-17.067242-16.459867-30.125807 0.4859-6.073751 17.006504-21.98698 16.156179-45.127974a134.594333 134.594333 0 0 0-14.577003-43.427323L365.148334 721.192999c-17.127979 63.956603-10.872015 68.815604-10.872015 68.815604z" fill="#FFFFFF" p-id="2115"></path><path d="M1025.122169 1023.96951H260.254646a8.624727 8.624727 0 1 1 0-17.188717h764.867523a8.624727 8.624727 0 1 1 0 17.188717zM208.627758 1023.96951h-66.811266a8.624727 8.624727 0 1 1 0-17.188717h66.811266a8.624727 8.624727 0 0 1 0 17.188717zM104.584395 1023.96951H9.347972a8.624727 8.624727 0 1 1 0-17.188717H104.584395a8.624727 8.624727 0 1 1 0 17.188717zM527.499711 108.412212a8.56399 8.56399 0 0 1-8.624727-8.624727v-78.958769a8.624727 8.624727 0 0 1 17.188716 0v78.958769a8.56399 8.56399 0 0 1-8.563989 8.624727zM484.98345 137.262532a8.442515 8.442515 0 0 1-6.802601-3.522776l-47.071574-60.737515a8.624727 8.624727 0 0 1 13.605203-10.568327l47.071574 60.737514a8.624727 8.624727 0 0 1-1.579175 12.147503 8.442515 8.442515 0 0 1-5.223427 1.943601zM439.369577 160.0391a8.503252 8.503252 0 0 1-4.433839-1.275488l-42.51626-25.813444A8.624727 8.624727 0 1 1 401.590843 118.25169l42.51626 25.813443a8.624727 8.624727 0 0 1-4.494576 15.973967zM573.113584 137.262532a8.624727 8.624727 0 0 1-6.802601-13.908891l47.071574-60.737515a8.624727 8.624727 0 1 1 13.605203 10.386115l-47.071574 60.737515a8.56399 8.56399 0 0 1-6.802602 3.522776zM618.66672 160.0391a8.624727 8.624727 0 0 1-4.494576-15.973967l42.516261-25.813443a8.624727 8.624727 0 0 1 8.928414 14.698478l-42.51626 25.813444a8.685465 8.685465 0 0 1-4.433839 1.275488z" fill="#952D2E" p-id="2116"></path><path d="M438.033351 170.668165a8.624727 8.624727 0 0 1-4.919738-15.670279l89.466359-62.255953a8.624727 8.624727 0 1 1 9.77874 14.151841L442.770878 169.149727a8.381777 8.381777 0 0 1-4.737527 1.518438z" fill="#952D2E" p-id="2117"></path><path d="M618.605983 170.668165a8.381777 8.381777 0 0 1-4.859001-1.518438L524.159147 106.893774a8.624727 8.624727 0 1 1 9.77874-14.151841l89.587835 62.255953a8.624727 8.624727 0 0 1-4.919739 15.670279zM258.068095 342.494594a19.55748 19.55748 0 0 1-19.314529-15.123641l-35.895872-145.770035a34.620383 34.620383 0 0 1 33.648583-42.880686h43.184373a34.620383 34.620383 0 0 1 33.587846 42.880686l-35.835134 145.770035a19.678955 19.678955 0 0 1-19.375267 15.123641zM236.506277 156.212636A17.431667 17.431667 0 0 0 219.378298 177.774454l35.895872 145.770036a2.733188 2.733188 0 0 0 5.284163 0l35.835134-145.770036a17.431667 17.431667 0 0 0-16.885029-21.561818z m32.555308 169.093241z" fill="#952D2E" p-id="2118"></path><path d="M617.45197 334.173555l-6.802602-33.101946a15.002166 15.002166 0 0 0-12.147503-11.540128 72.885018 72.885018 0 0 1-139.696283 0 15.184379 15.184379 0 0 0-12.147503 11.540128L440.52359 334.173555a15.062904 15.062904 0 0 0 15.366591 17.674616H602.024641a15.123641 15.123641 0 0 0 15.427329-17.674616z" fill="#F3A8BC" p-id="2119"></path><path d="M749.19164 1020.993372H298.337068a8.56399 8.56399 0 0 1-8.503253-9.657265L305.868519 880.811187a8.624727 8.624727 0 1 1 17.067242 2.125813l-15.002166 120.867655h431.540042l-14.516266-119.895854a8.624727 8.624727 0 1 1 17.067242-2.065076l15.731016 129.492382a8.80694 8.80694 0 0 1-2.125813 6.741864 8.56399 8.56399 0 0 1-6.438176 2.915401zM728.90531 846.919654a8.56399 8.56399 0 0 1-8.503252-7.592189l-3.219089-27.878519H330.04205l-3.583513 27.453356a8.624727 8.624727 0 1 1-17.067242-2.18655l4.555314-34.984809a8.56399 8.56399 0 0 1 8.685464-7.470714h402.386036a8.56399 8.56399 0 0 1 8.503252 7.592189l4.069413 35.470709a8.624727 8.624727 0 0 1-7.531452 9.53579z" fill="#952D2E" p-id="2120"></path><path d="M740.081012 888.889277h-428.199479a28.364419 28.364419 0 1 1 0-56.668101h428.199479a28.364419 28.364419 0 0 1 0 56.668101z m-428.199479-39.479385a11.175703 11.175703 0 1 0 0 22.290668h428.199479a11.175703 11.175703 0 0 0 0-22.290668zM622.250234 582.772203a29.57917 29.57917 0 0 1-23.809106-12.147503l-40.57266-54.663764a29.518432 29.518432 0 0 1-5.344901-21.98698 29.09327 29.09327 0 0 1 11.600865-19.31453L663.491006 400.984821a29.57917 29.57917 0 0 1 41.30151 6.073751l40.57266 54.967451a29.639907 29.639907 0 0 1-6.073751 41.362248L639.742638 577.123614a29.457695 29.457695 0 0 1-17.492404 5.648589z m58.733177-170.065042a12.147503 12.147503 0 0 0-7.288502 2.368763L574.389072 488.325367a12.147503 12.147503 0 0 0-2.733188 17.188717l40.511922 55.028188a12.147503 12.147503 0 0 0 17.249454 2.611713l99.305837-73.249443a12.147503 12.147503 0 0 0 2.611713-17.188716l-40.511922-55.028189a12.147503 12.147503 0 0 0-9.839477-4.980476z m53.02385 84.182196z" fill="#952D2E" p-id="2121"></path><path d="M610.710106 503.874171a8.624727 8.624727 0 0 1-5.101951-15.548804l95.357898-70.273305A8.624727 8.624727 0 0 1 711.352168 431.960953l-95.357898 70.273305a8.80694 8.80694 0 0 1-5.284164 1.639913zM379.117962 706.798208a8.624727 8.624727 0 0 1-4.859001-15.731017l185.24942-127.548781a8.624727 8.624727 0 0 1 9.77874 14.212579l-185.24942 127.548781a8.685465 8.685465 0 0 1-4.919739 1.518438zM407.664594 558.902359a8.442515 8.442515 0 0 1-7.045552-3.704988 8.56399 8.56399 0 0 1 2.065076-12.147503l68.754867-48.590012a8.624727 8.624727 0 0 1 9.900215 14.091103l-68.754867 48.590012A8.746202 8.746202 0 0 1 407.664594 558.902359zM500.167829 495.856819a8.56399 8.56399 0 0 1-7.045552-3.644251 8.624727 8.624727 0 0 1 2.125813-12.147503l17.310192-12.147503a8.624727 8.624727 0 0 1 9.839477 14.151841l-17.310191 12.147503a8.685465 8.685465 0 0 1-4.919739 1.639913zM519.300146 1017.470596a8.685465 8.685465 0 0 1-8.381777-8.624727v-89.101935a8.624727 8.624727 0 0 1 17.249454 0v89.101935a8.685465 8.685465 0 0 1-8.867677 8.624727zM610.467156 1017.470596a8.624727 8.624727 0 0 1-8.442515-8.624727v-58.733177a8.624727 8.624727 0 0 1 17.188717 0v58.733177a8.624727 8.624727 0 0 1-8.746202 8.624727zM428.133137 1017.470596a8.685465 8.685465 0 0 1-8.32104-8.624727v-58.733177a8.624727 8.624727 0 0 1 17.249454 0v58.733177a8.685465 8.685465 0 0 1-8.928414 8.624727zM441.434652 390.841656a8.32104 8.32104 0 0 1-6.073751-2.611713l-109.934902-112.303665a8.624727 8.624727 0 0 1 12.147503-12.147503l109.995639 112.42514a8.56399 8.56399 0 0 1-6.073751 14.637741zM412.098433 521.48805a8.624727 8.624727 0 0 1-7.470715-4.312363l-97.180023-167.028166a8.624727 8.624727 0 0 1 15.184378-8.624727l97.180024 167.028165a8.56399 8.56399 0 0 1-7.409977 12.937091zM529.139624 347.110645A77.683281 77.683281 0 0 1 451.577817 273.43604l-0.425162-51.140988c0-42.51626 66.811266-73.492393 74.099768-76.893693a8.685465 8.685465 0 0 1 3.522776-0.72885h1.275487a8.685465 8.685465 0 0 1 3.522776 0.72885c7.592189 3.401301 74.03903 34.559646 74.039031 76.832956l-0.364425 50.8373A77.744019 77.744019 0 0 1 529.139624 347.110645z m0-184.945732c-19.375267 9.353577-60.737515 34.620383-60.737515 59.765714l0.364425 50.776563a60.737515 60.737515 0 0 0 121.475029-0.364425l0.425163-50.472875c-0.303688-25.145331-41.848148-50.3514-61.527102-59.704977z m69.848142 59.765714z" fill="#952D2E" p-id="2122"></path><path d="M712.749131 807.92617H346.258967a8.381777 8.381777 0 0 1-6.681127-3.219089 8.746202 8.746202 0 0 1-1.70065-7.288501L433.052875 380.334066a8.503252 8.503252 0 0 1 8.381777-6.681127h174.134455a8.56399 8.56399 0 0 1 8.381777 6.620389l12.754878 54.663764a8.56399 8.56399 0 0 1-6.073751 10.325377 8.624727 8.624727 0 0 1-10.386115-6.073751l-11.23644-48.590012H448.297991l-91.106272 399.895797h344.806872l-54.177864-232.685419a8.624727 8.624727 0 0 1 16.763555-3.947938l56.668101 243.314484a8.56399 8.56399 0 0 1-8.381777 10.50759z" fill="#952D2E" p-id="2123"></path><path d="M300.948781 71.362328a116.130128 116.130128 0 0 0-5.587852-16.216916c-2.429501-6.073751-5.101951-12.147503-7.956614-17.85683 0 0.911063-1.822125 3.036876-2.429501 3.644251a27.088932 27.088932 0 0 1-3.462038 2.976139 41.605198 41.605198 0 0 0-6.681127 5.466376C275.439024 23.076004 243.673304 8.74195 243.673304 8.74195a69.787404 69.787404 0 0 1-5.162689 40.633398A94.932736 94.932736 0 0 1 225.45205 37.531532c1.579175 10.386115-4.069413 19.07158-9.353577 27.271145a34.498908 34.498908 0 0 0 2.67245 43.427323 53.509751 53.509751 0 0 0 37.171359 18.221254 53.206063 53.206063 0 0 0 36.442509-17.310192 39.60086 39.60086 0 0 0 8.56399-37.778734z" fill="#F5E455" p-id="2124"></path><path d="M255.820807 134.893769a62.07374 62.07374 0 0 1-43.548798-20.893705 43.245111 43.245111 0 0 1-3.522776-53.874176c4.737526-7.349239 9.171365-14.151841 8.07809-21.25813a8.624727 8.624727 0 0 1 14.941428-7.045552s0.911063 1.032538 2.429501 2.550976a56.242939 56.242939 0 0 0 0.789588-23.748369 8.56399 8.56399 0 0 1 12.147503-9.718002c1.21475 0.4859 24.295006 11.175703 33.101945 31.704983a8.56399 8.56399 0 0 1 14.880691 0.850325c2.976138 6.073751 5.770064 12.147503 8.260302 18.58568l0.850325 2.004338a106.047701 106.047701 0 0 1 5.162689 15.366591 47.557474 47.557474 0 0 1-10.568327 45.492398A61.405627 61.405627 0 0 1 255.820807 134.893769zM231.525801 54.780987a91.106272 91.106272 0 0 1-8.138827 14.516266 25.934919 25.934919 0 0 0 1.822126 33.041208A45.310186 45.310186 0 0 0 255.820807 117.705052 44.459861 44.459861 0 0 0 286.189565 103.370999a30.915395 30.915395 0 0 0 6.073751-29.82212 85.336208 85.336208 0 0 0-4.433839-12.876353l-0.789587-2.125813-2.550976-6.073752a24.598693 24.598693 0 0 0-3.279826 2.611713 8.56399 8.56399 0 0 1-15.184378-5.648589 32.069408 32.069408 0 0 0-13.180041-24.295006 82.967445 82.967445 0 0 1-6.863339 27.87852 8.685465 8.685465 0 0 1-5.709327 4.676788 8.56399 8.56399 0 0 1-7.227764-1.396962z" fill="#952D2E" p-id="2125"></path></svg>